<svg xmlns="http://www.w3.org/2000/svg" xml:space="preserve" style="fill-rule:evenodd;clip-rule:evenodd;stroke-linejoin:round;stroke-miterlimit:2" viewBox="0 0 512 512"><path d="M85.025 2.232c-46.25 0-83.744 37.493-83.744 83.742 0 46.254 37.494 83.744 83.744 83.744 46.251 0 83.743-37.49 83.743-83.744 0-46.249-37.492-83.742-83.743-83.742Z" style="fill:#18181b;fill-rule:nonzero" transform="matrix(0 -2.99415 2.99415 0 -2.846 512)"/><path d="M62.803 84.579v43.448c0 3.189-1.935 5.778-4.318 5.778h-8.637c-2.384 0-4.319-2.589-4.319-5.778V84.579c0-3.189 1.935-5.779 4.319-5.779h8.637c2.383 0 4.318 2.59 4.318 5.779Z" style="fill:#fff" transform="matrix(4.00632 0 0 2.99415 -61.114 -6.328)"/><path d="M62.803 83.166v46.273c0 2.41-1.935 4.366-4.318 4.366h-8.637c-2.384 0-4.319-1.956-4.319-4.366V83.166c0-2.41 1.935-4.366 4.319-4.366h8.637c2.383 0 4.318 1.956 4.318 4.366Z" style="fill:#fff" transform="matrix(4.00632 0 0 3.96315 38.992 -135.986)"/><path d="M62.803 82.241v48.124c0 1.898-1.935 3.44-4.318 3.44h-8.637c-2.384 0-4.319-1.542-4.319-3.44V82.241c0-1.899 1.935-3.441 4.319-3.441h8.637c2.383 0 4.318 1.542 4.318 3.441Z" style="fill:#fff" transform="matrix(4.00632 0 0 5.02885 139.098 -278.58)"/></svg>